<?xml version="1.0" encoding="utf-8"?>
<!-- Generator: Adobe Illustrator 27.3.1, SVG Export Plug-In . SVG Version: 6.00 Build 0)  -->
<svg version="1.1" id="Layer_1" xmlns="http://www.w3.org/2000/svg" xmlns:xlink="http://www.w3.org/1999/xlink" x="0px" y="0px"
	 width="450px" height="75px" viewBox="0 0 450 75" style="enable-background:new 0 0 450 75;" xml:space="preserve">
<style type="text/css">
	.st0{fill:#B6D554;}
	.st1{fill:#718828;}
	.st2{fill:#886251;}
	.st3{fill:#285588;}
	.st4{fill:#CF83DC;}
</style>
<g>
	<path class="st0" d="M7.5,32c-0.3,0.5-1.7,5.6-4.2,15.4v0.8c0.4,1.1,1.1,1.6,2.1,1.6h0.4c0.5,0,1-0.4,1.6-1.1c0.3-1,1.4-5,3.3-12.2
		c1.3-0.7,2.6-1.1,4-1.1c1,0.1,1.8,0.2,2.4,0.4c-2,7.4-3,11.4-3.1,12c0,0,0-0.1,0.1-0.1c0,1.2,0.7,1.9,2.1,2.2
		c0.7,0,1.3-0.3,1.9-0.9c0.2-0.4,1.3-4.3,3.2-11.9c0-0.8,1.4-1.4,4.2-1.7c0.7,0.1,1.5,0.2,2.4,0.4c-2.1,7.8-3.1,11.8-3.1,12
		c0.3,1.4,1,2.1,1.9,2.1h0.5c0.6,0,1.1-0.4,1.7-1.1c2.2-8.1,3.4-12.7,3.6-13.7v-0.4c0-0.5-0.2-1.1-0.6-1.7c-1.5-1.3-3.5-2-5.9-2
		h-1.2c-1.4,0-3,0.4-4.7,1.1c-1.9-0.7-3.6-1.1-5.2-1.1h-0.8c-1.1,0-2.3,0.2-3.4,0.6C10.2,31.2,9.8,31,9.3,31H8.9
		C8.5,31.1,8,31.4,7.5,32L7.5,32L7.5,32z M41.5,31.5C39.3,32.2,37.8,33,37,34c-2,7.3-3.1,11.3-3.1,11.9v0.3c0,0.6,0.3,1.2,0.8,1.8
		c1.5,1.3,3.3,1.9,5.5,1.9h1.4c1.3,0,2.7-0.3,4.2-0.9c1.2-0.4,2.2-1.1,2.9-2c2.1-7.4,3.1-11.3,3.1-11.9v-0.4c0-0.5-0.2-1-0.5-1.4
		c-1.3-1.5-3.4-2.2-6.2-2.2h-0.8C43.4,31.1,42.5,31.3,41.5,31.5L41.5,31.5L41.5,31.5z M40.8,36.5c1.2-0.7,2.4-1,3.6-1H45
		c0.5,0,1.3,0.1,2.2,0.3c0,0.2-0.7,3.1-2.2,8.7c-1.2,0.7-2.4,1-3.6,1h-0.9c-0.6,0-1.2-0.1-1.8-0.3C38.6,45,39.3,42.1,40.8,36.5
		L40.8,36.5L40.8,36.5z M56.8,32.3c-2.1,7.6-3.2,12.2-3.5,13.5v0.4c0,0.4,0.2,1,0.5,1.5c1.5,1.4,3.5,2.1,6,2.1h0.9
		c1.1,0,2.3-0.2,3.5-0.6c0.4,0.4,0.8,0.6,1.2,0.6H66c0.6,0,1.2-0.4,1.7-1.1c2.6-9.9,4-15,4-15.3V33c0-0.9-0.6-1.5-1.9-1.8h-0.6
		c-0.5,0-1,0.4-1.6,1.1l-3.3,12.3c-1.1,0.7-2.3,1-3.7,1h-0.4c-0.6,0-1.3-0.1-2-0.2h-0.3c2-7.8,3-11.7,3-11.9V33
		c-0.4-1.1-1.1-1.7-2.1-1.7h-0.4C57.9,31.1,57.3,31.5,56.8,32.3L56.8,32.3L56.8,32.3z M77.2,32.1c-0.3,0.5-1.7,5.6-4.2,15.4v0.6
		c0,0.9,0.6,1.5,1.9,1.8h0.6c0.4,0,0.9-0.3,1.5-0.9c0.2-0.4,1.4-4.5,3.4-12.4c1.2-0.7,2.6-1.1,4.1-1.1c0.6,0.1,1.4,0.2,2.3,0.4
		l-3,11.6V48c0,1,0.7,1.6,2.1,1.9c0.8,0,1.5-0.4,2-1.1c2.4-8.6,3.6-13.1,3.6-13.6v-0.4c0-0.5-0.2-1.1-0.6-1.7c-1.5-1.3-3.5-2-5.9-2
		h-1c-1.1,0-2.3,0.2-3.4,0.6c-0.5-0.4-0.9-0.6-1.2-0.6h-0.6C78.2,31.2,77.7,31.5,77.2,32.1L77.2,32.1L77.2,32.1z"/>
	<path class="st0" d="M93.6,25.8v0.6c0,0.7,0.5,1.3,1.6,1.8c1.7,0,2.5,0.5,2.5,1.6v0.6l-4,15.5c0,0.7,0.2,1.3,0.7,1.9
		c1.4,1.4,3.3,2.1,5.8,2.1h1c0.6,0,1.2-0.1,1.8-0.2c3.9-1,5.8-2.1,5.8-3.6v-0.7c-0.4-1.1-1.1-1.7-2.1-1.7c-0.2,0-0.4,0-0.6,0.1
		c-1.7,1.2-3.3,1.7-4.8,1.7h-0.9c-0.7,0-1.4-0.1-2-0.3c1.5-5.5,2.2-8.4,2.2-8.6c0.9-0.7,2.4-1.1,4.5-1.1c1.3-0.4,2-1.1,2-2.1
		l-0.1-0.5c-0.4-1.1-1.1-1.7-1.9-1.7h-0.7c-0.5,0-1.2,0.1-2.2,0.2v-1.7c0-0.7-0.2-1.5-0.6-2.3c-1.3-2.2-3-3.3-5.1-3.3h-0.9
		C94.6,24,94,24.6,93.6,25.8L93.6,25.8L93.6,25.8z M120.6,31.3c-3.9,1-5.8,2.1-5.8,3.6v0.5l0.1,0.4c0.4,1,1.1,1.5,2.1,1.5
		c0.2,0,0.4,0,0.6-0.1c1.7-1.2,3.3-1.7,4.8-1.7h0.9c0.6,0,1.2,0.1,1.8,0.3c0,0.3-0.2,1.2-0.7,2.9c-1.2-0.3-2.3-0.4-3.2-0.4h-0.5
		c-2.8,0-5.2,0.8-7.3,2.5c-0.4,0-0.9,1.7-1.6,5.1v0.4c0,0.4,0.2,1,0.5,1.5c1.5,1.4,3.5,2.1,6,2.1h1.2c1.4,0,3-0.4,4.8-1.2
		c1.1-0.5,1.9-1.1,2.5-1.9c1.8-6.6,2.8-10.5,3-11.7v-0.3c0-0.2-0.1-0.5-0.2-0.9c-1.1-1.9-3.2-2.9-6.3-2.9h-1
		C121.9,31.1,121.3,31.2,120.6,31.3L120.6,31.3L120.6,31.3z M116.8,44.3c0-1,1.4-1.5,4.2-1.6h0.2c0.7,0,1.3,0.1,2.1,0.3
		c0,0.5-0.1,0.8-0.2,1.1c0,0.8-1.2,1.3-3.7,1.6h-0.5c-0.6,0-1.3-0.1-2.1-0.3C116.7,44.6,116.8,44.3,116.8,44.3L116.8,44.3
		L116.8,44.3z"/>
	<path class="st0" d="M136.7,26.3c0,1.1,0.7,1.8,2.2,2.1c1.4-0.3,2.1-1,2.1-1.9v-0.6c0-0.9-0.6-1.5-1.9-1.8h-0.6
		C137.7,24,137,24.8,136.7,26.3L136.7,26.3L136.7,26.3z M135.2,32.1c-0.3,0.7-1.7,5.8-4.1,15.3v0.7c0.4,1.1,1,1.7,1.8,1.7h0.6
		c0.6,0,1.1-0.4,1.7-1.2c2.5-9.2,3.8-14.3,4-15.3v-0.4c0-1-0.7-1.6-2.1-1.9C136.4,31.1,135.7,31.5,135.2,32.1L135.2,32.1L135.2,32.1
		z M144.5,32.1c-0.3,0.5-1.7,5.6-4.2,15.4v0.6c0,0.9,0.6,1.5,1.9,1.8h0.6c0.4,0,0.9-0.3,1.5-0.9c0.2-0.4,1.4-4.5,3.4-12.4
		c1.2-0.7,2.6-1.1,4.1-1.1c0.6,0.1,1.4,0.2,2.3,0.4l-3,11.6V48c0,1,0.7,1.6,2.1,1.9c0.8,0,1.5-0.4,2-1.1c2.4-8.6,3.6-13.1,3.6-13.6
		v-0.4c0-0.5-0.2-1.1-0.6-1.7c-1.5-1.3-3.5-2-5.9-2h-1c-1.1,0-2.3,0.2-3.4,0.6c-0.5-0.4-0.9-0.6-1.2-0.6H146
		C145.5,31.2,145,31.5,144.5,32.1L144.5,32.1L144.5,32.1z"/>
	<path class="st1" d="M161.9,25.8v0.9c0.4,1.1,1.3,1.6,2.9,1.6h3.5l-1,4c-1.9,6.6-2.8,10.4-2.8,11.3c0,1,0.2,1.8,0.5,2.6
		c1.2,2.4,3,3.6,5.4,3.6h0.7c1.2-0.4,1.8-1.1,1.8-2.1c0-0.2,0-0.4-0.1-0.6c-0.4-1.2-1.1-1.7-2.4-1.7c-1,0-1.5-0.6-1.7-1.7v-0.1
		c0-0.4,1.3-5.5,3.9-15.4h1.6c1,0,1.5,0.6,1.7,1.8l-0.2,1.3c0,0.2,0.1,0.6,0.2,1c0.5,0.9,1.2,1.3,1.9,1.3c0.2-0.1,0.4-0.1,0.5-0.1
		c1.2-0.3,1.9-1.4,1.9-3.2v-0.9c0-0.4-0.1-0.9-0.3-1.7c-1.2-2.7-3.1-4-5.6-4h-10.8C162.8,24,162.2,24.6,161.9,25.8L161.9,25.8
		L161.9,25.8z"/>
	<path class="st0" d="M191.1,31.5c-2.2,0.7-3.7,1.5-4.5,2.5c-2,7.3-3.1,11.3-3.1,11.9v0.3c0,0.6,0.3,1.2,0.8,1.8
		c1.5,1.3,3.3,1.9,5.5,1.9h1.4c1.3,0,2.7-0.3,4.2-0.9c1.2-0.4,2.2-1.1,2.9-2c2.1-7.4,3.1-11.3,3.1-11.9v-0.4c0-0.5-0.2-1-0.5-1.4
		c-1.3-1.5-3.4-2.2-6.2-2.2h-0.8C193.1,31.1,192.1,31.3,191.1,31.5L191.1,31.5L191.1,31.5z M190.4,36.5c1.2-0.7,2.4-1,3.6-1h0.5
		c0.5,0,1.3,0.1,2.2,0.3c0,0.2-0.7,3.1-2.2,8.7c-1.2,0.7-2.4,1-3.6,1H190c-0.6,0-1.2-0.1-1.8-0.3C188.2,45,188.9,42.1,190.4,36.5
		L190.4,36.5L190.4,36.5z M212,31.4c-2.7,0.7-4.5,1.6-5.3,2.7c-0.4,1.1-2.2,8-5.4,20.6v0.6c0,0.9,0.6,1.5,1.9,1.8h0.6
		c0.4,0,0.9-0.3,1.4-0.8c0.2-0.2,0.9-2.5,2-6.8c1.3,0.3,2.4,0.4,3.3,0.4h0.4c1.1,0,2.4-0.2,3.8-0.5c2.4-1,3.7-1.8,3.9-2.4
		c1.8-6.4,2.8-10.3,3-11.8v-0.4c0-0.4-0.2-1-0.5-1.5c-1.5-1.4-3.5-2.1-6-2.1h-0.9C213.4,31.1,212.7,31.2,212,31.4L212,31.4L212,31.4
		z M210.5,37.1c0-0.8,1.2-1.4,3.7-1.6h0.6c0.7,0,1.3,0.1,1.9,0.2h0.3l-2.2,8.7c-1.1,0.7-2.4,1.1-3.9,1.1h-0.4
		c-0.7,0-1.4-0.1-2.1-0.3C208.4,44.8,209.1,42.1,210.5,37.1L210.5,37.1L210.5,37.1z"/>
	<path class="st1" d="M224.8,25.8v0.6c0,0.7,0.5,1.3,1.6,1.8c1.7,0,2.5,0.5,2.5,1.6v0.5c0,0.2,0,0.5-0.1,0.7l-3.9,15
		c0,0.7,0.2,1.3,0.7,1.9c1.4,1.4,3.3,2.1,5.8,2.1h1c2.5,0,4.7-0.8,6.7-2.3c0.6,0,1.2-1.8,1.9-5.3c0-0.2,0-0.4-0.1-0.4
		c-0.4-1.2-1-1.8-1.9-1.8h-0.2c-0.6,0-1,0.2-1.2,0.5c-0.4,0-0.9,1.1-1.5,3.3c0,0.8-1.2,1.4-3.7,1.6h-0.9c-0.8,0-1.4-0.1-1.9-0.3
		c0.1-0.7,0.6-2.6,1.5-5.9c1.5-5.1,2.2-8.2,2.2-9.2c-0.1-0.6-0.1-1.1-0.3-1.8h5c1,0,1.5,0.6,1.7,1.8l-0.2,1.3c0,0.1,0,0.3,0.1,0.5
		c0.4,1.2,1.1,1.7,2.1,1.7c0.4-0.1,0.7-0.1,0.9-0.2c1-0.4,1.5-1.4,1.5-3v-0.9c0-0.7-0.2-1.5-0.6-2.3c-1.3-2.2-3-3.3-5.1-3.3h-11.7
		C225.7,24,225.1,24.6,224.8,25.8L224.8,25.8L224.8,25.8z"/>
	<path class="st0" d="M254.8,31.5c-2.2,0.7-3.7,1.5-4.5,2.5c-2,7.3-3.1,11.3-3.1,11.9v0.3c0,0.6,0.3,1.2,0.8,1.8
		c1.5,1.3,3.3,1.9,5.5,1.9h1.4c1.3,0,2.7-0.3,4.2-0.9c1.2-0.4,2.2-1.1,2.9-2c2.1-7.4,3.1-11.3,3.1-11.9v-0.4c0-0.5-0.2-1-0.5-1.4
		c-1.3-1.5-3.4-2.2-6.2-2.2h-0.8C256.7,31.1,255.8,31.3,254.8,31.5L254.8,31.5L254.8,31.5z M254.1,36.5c1.2-0.7,2.4-1,3.6-1h0.5
		c0.5,0,1.3,0.1,2.2,0.3c0,0.2-0.7,3.1-2.2,8.7c-1.2,0.7-2.4,1-3.6,1h-0.9c-0.6,0-1.2-0.1-1.8-0.3C251.9,45,252.6,42.1,254.1,36.5
		L254.1,36.5L254.1,36.5z M282.7,24.8c-0.2,0.4-0.8,2.6-1.8,6.5v0.3c-1.5-0.3-2.7-0.4-3.6-0.4h-0.4c-0.9,0-1.9,0.1-3,0.4
		c-2.3,0.7-3.8,1.5-4.5,2.5c-2,7.3-3.1,11.3-3.1,11.9v0.3c0,0.2,0,0.5,0.1,0.9c1.1,1.9,3.2,2.9,6.3,2.9h1.2c0.7,0,1.6-0.1,2.7-0.4
		c2.2-0.7,3.7-1.5,4.5-2.5c0.3-0.9,2.1-7.7,5.4-20.6V26c0-0.9-0.6-1.5-1.9-1.8H284C283.7,24,283.2,24.2,282.7,24.8L282.7,24.8
		L282.7,24.8z M273.2,36.5c1.2-0.7,2.4-1,3.7-1h0.4c0.5,0,1.2,0.1,2.3,0.3l-2.2,8.7c-1.2,0.7-2.4,1-3.6,1h-0.9
		c-0.6,0-1.2-0.1-1.8-0.3C271,44.9,271.7,42,273.2,36.5L273.2,36.5L273.2,36.5z"/>
	<path class="st0" d="M291.5,26.3c0,1.1,0.7,1.8,2.2,2.1c1.4-0.3,2.1-1,2.1-1.9v-0.6c0-0.9-0.6-1.5-1.9-1.8h-0.6
		C292.4,24,291.8,24.8,291.5,26.3L291.5,26.3L291.5,26.3z M290,32.1c-0.3,0.7-1.7,5.8-4.1,15.3v0.7c0.4,1.1,1,1.7,1.8,1.7h0.6
		c0.6,0,1.1-0.4,1.7-1.2c2.5-9.2,3.8-14.3,4-15.3v-0.4c0-1-0.7-1.6-2.1-1.9C291.2,31.1,290.5,31.5,290,32.1L290,32.1L290,32.1z
		 M299.3,32.1c-0.3,0.5-1.7,5.6-4.2,15.4v0.6c0,0.9,0.6,1.5,1.9,1.8h0.6c0.4,0,0.9-0.3,1.5-0.9c0.2-0.4,1.4-4.5,3.4-12.4
		c1.2-0.7,2.6-1.1,4.1-1.1c0.6,0.1,1.4,0.2,2.3,0.4l-3,11.6V48c0,1,0.7,1.6,2.1,1.9c0.8,0,1.5-0.4,2-1.1c2.4-8.6,3.6-13.1,3.6-13.6
		v-0.4c0-0.5-0.2-1.1-0.6-1.7c-1.5-1.3-3.5-2-5.9-2h-1c-1.1,0-2.3,0.2-3.4,0.6c-0.5-0.4-0.9-0.6-1.2-0.6h-0.6
		C300.3,31.2,299.8,31.5,299.3,32.1L299.3,32.1L299.3,32.1z"/>
	<path class="st0" d="M321.6,31.8c-2.5,1-3.7,2-3.7,2.7c-1.9,7-2.8,10.9-2.9,11.5v0.1c0,0.3,0,0.6,0.1,0.8c1,2,3.2,3,6.7,3h0.5
		c0.4,0,1.2-0.1,2.4-0.2l-0.5,2c-1.2,0.7-2.4,1-3.6,1h-0.9c-0.7,0-1.5-0.1-2.2-0.3c-0.7-1-1.4-1.5-2.1-1.5c-1.5,0.2-2.2,0.9-2.2,2.1
		v0.3c0,0.2,0,0.5,0.1,0.9c1.1,1.9,3.2,2.9,6.3,2.9h1c0.8,0,1.7-0.1,2.5-0.3c2.4-0.6,4-1.5,4.9-2.6c3.3-12.2,5-18.5,5-19v-0.4
		c0-0.5-0.1-0.9-0.4-1.2c-0.7-1.4-2.8-2.3-6.4-2.5h-0.8C324.2,31.1,323,31.4,321.6,31.8L321.6,31.8L321.6,31.8z M321.9,36.5
		c1.1-0.7,2.4-1,3.7-1h0.6c0.4,0,1.1,0.1,2.1,0.3c-0.2,0.9-0.9,3.7-2.2,8.6c-1,0.7-2.3,1.1-3.8,1.1h-0.4c-0.6,0-1.3-0.1-2.2-0.3
		L321.9,36.5L321.9,36.5z M345.4,21c-6.2,6.6-9.3,13.7-9.3,21.2v1.6c0,1.9,0.2,3.7,0.6,5.4c0.4,3,1.2,4.5,2.5,4.5h0.5l0.4-0.1
		c1-0.4,1.5-1.1,1.5-2.1v-0.1c-0.8-3.4-1.2-6.2-1.2-8.5c0-6.2,2.2-12,6.6-17.4c1.6-1.5,2.4-2.5,2.4-3.1V22c0-0.9-0.6-1.5-1.9-1.8
		h-0.6C346.5,20.1,346,20.4,345.4,21L345.4,21L345.4,21z M431.2,20.2c-1,0.4-1.5,1.1-1.5,2.1v0.1c0.8,3.4,1.2,6.2,1.2,8.5
		c0,6.2-2.2,12-6.6,17.4c-1.6,1.5-2.4,2.5-2.4,3.1V52c0,0.9,0.6,1.5,1.9,1.8h0.6c0.4,0,0.9-0.3,1.5-0.9c6.2-6.6,9.3-13.7,9.3-21.2
		V30c0-1.9-0.2-3.7-0.6-5.4c-0.4-3-1.2-4.5-2.5-4.5h-0.5L431.2,20.2L431.2,20.2z M441.9,30v0.4c0,1.2,0.7,1.9,2.1,2.1
		c1.4-0.3,2.1-1,2.1-1.9V30c0-0.9-0.6-1.5-1.9-1.8h-0.6C442.8,28.1,442.2,28.7,441.9,30L441.9,30L441.9,30z M438.4,43.3v0.6
		c0,0.7,0.6,1.3,1.7,1.8c-0.1,0.5-0.1,0.8-0.2,0.9c0.1,0.6,0.4,0.9,1,0.9h0.2c0.1,0,0.2,0,0.3-0.1c0.4,0,0.8-1.2,1.3-3.6v-0.6
		c0-0.9-0.6-1.5-1.9-1.8h-0.6C439.3,41.4,438.7,42,438.4,43.3L438.4,43.3L438.4,43.3z"/>
	<path class="st1" d="M346.9,44.9c0,0,9.3-15.3,16.9-24.9c0,0,2.3,1.9,3.5,4.3l3.9-1.8l-4.5,3.3c0,0-1.2-1.6-2.8-3.4
		c0,0-3.9,5.8-6.1,9.3c0,0,4.9-1.8,6.2-3.3c0,0-2.4,4.8-8.2,8.5c0,0,3.1-0.4,5.9-2.4l-4.9,7.9C356.7,42.5,353.7,42.7,346.9,44.9"/>
	<polyline class="st0" points="357.3,46.9 373.1,20.4 384,14.1 408.2,53.3 407.3,53.8 388.9,29.8 388.4,37.3 393.5,44.9 384.9,38.5 
		384.5,31.7 378.5,33.8 378.9,36.5 382.5,41 376.5,37.6 376.3,31.4 381.4,27.8 384.8,19.8 380.5,22.9 377.4,24.7 383.5,15.7 
		373.7,21.4 359.5,47 357.3,46.9 	"/>
	<path class="st2" d="M380.3,18.9l-5.8,3.3l-11,21c0,0,3.3,1.7,20.8,2c0,0-14.7-1.7-18.2-3.6L375,23L380.3,18.9"/>
	<path class="st1" d="M390.1,26.3l7-4.4c0,0,11.3,12,17.1,30.4c0,0-9.6-21.2-17.1-27.5c0,0,3.4,5.2,2.9,12.3l3.9,6.4l-2.4-6.4
		l0.1-4.6c0,0,4.3,5.2,7.3,13.8c0,0-4.5,0.9-6.2,0.2L390.1,26.3"/>
	<path class="st2" d="M405.6,33.8l6.7-2.7c0,0,4.4,5.5,7.8,14.8c0,0-5.2-10.9-8.1-13.5c0,0-2.2,1.2-3.6,2.9c0,0,1.7-0.8,3.7-0.5
		c0,0,3,3.5,4.5,8.5c0,0-4.2,0.6-6.1,0.5L405.6,33.8"/>
	<path class="st3" d="M357,43.9c0,0-9,1.8-6.4,3.9c2.7,2.1,3,4.7-18,8.6c0,0,44-4.9,87.9,4.3c0,0-16.1-6.4-32.5-8
		C369.4,50.9,343.9,49.3,357,43.9"/>
	<path class="st4" d="M388.9,59c0,0-37.4-4.4-56.1,0.5C332.8,59.5,364.6,57,388.9,59"/>
	<path class="st1" d="M357.3,46.9c0,0,4.9,1.8,13.2,2.3c8.2,0.5,33.3,1.2,53.8,10.6c0,0-9.5-6.2-29.6-9.7s-28.7-1.6-35.1-4.6
		L357.3,46.9"/>
</g>
</svg>
