<?xml version="1.0" encoding="utf-8"?>
<!-- Generator: Adobe Illustrator 27.3.1, SVG Export Plug-In . SVG Version: 6.00 Build 0)  -->
<svg version="1.1"
	 id="svg855" xmlns:rdf="http://www.w3.org/1999/02/22-rdf-syntax-ns#" xmlns:inkscape="http://www.inkscape.org/namespaces/inkscape" xmlns:sodipodi="http://sodipodi.sourceforge.net/DTD/sodipodi-0.dtd" xmlns:cc="http://creativecommons.org/ns#" xmlns:dc="http://purl.org/dc/elements/1.1/" xmlns:svg="http://www.w3.org/2000/svg"
	 xmlns="http://www.w3.org/2000/svg" xmlns:xlink="http://www.w3.org/1999/xlink" x="0px" y="0px" width="250px" height="150px"
	 viewBox="0 0 250 150" style="enable-background:new 0 0 250 150;" xml:space="preserve">
<style type="text/css">
	.st0{fill:#718828;}
	.st1{fill:#B6D554;}
	.st2{fill:#886251;}
	.st3{fill:#285588;}
	.st4{fill:#CF83DC;}
</style>
<sodipodi:namedview  bordercolor="#666666" borderopacity="1" gridtolerance="10" guidetolerance="10" id="namedview857" inkscape:current-layer="g863" inkscape:cx="493.11638" inkscape:cy="264.89115" inkscape:pageopacity="0" inkscape:pageshadow="2" inkscape:window-height="810" inkscape:window-maximized="0" inkscape:window-width="1411" inkscape:window-x="0" inkscape:window-y="25" inkscape:zoom="1.1986056" objecttolerance="10" pagecolor="#ffffff" showgrid="false">
	</sodipodi:namedview>
<g id="g863" transform="matrix(1.3333333,0,0,-1.3333333,0,556.48)" inkscape:groupmode="layer" inkscape:label="ink_ext_XXXXXX">
	<path id="path1073" class="st0" d="M33.5,349.5c0,0,18,25.5,32.8,41.5c0,0,4.5-3.2,6.8-7.2l7.5,3l-8.8-5.5c0,0-2.2,2.8-5.5,5.8
		c0,0-7.5-9.8-11.8-15.5c0,0,9.5,3,12,5.5c0,0-4.8-8-16-14.2c0,0,6,0.8,11.5,4l-9.5-13.2C52.5,353.5,46.7,353.3,33.5,349.5"/>
	<path id="path1075" class="st1" d="M53.7,346.3l30.5,44.2l21.3,10.5l46.9-65.6l-1.8-0.8L115,374.8l-1-12.5l10-12.8l-16.8,10.8
		l-0.8,11.2L94.7,368l0.8-4.5l7-7.5L91,361.8L90.5,372l10,6l6.5,13.5l-8.3-5.2l-6-3l11.8,15l-19-9.5L58,346L53.7,346.3"/>
	<path id="path1077" class="st2" d="M98.3,392.9l-11.2-5.5l-21.3-35c0,0,6.4-2.8,40.3-3.3c0,0-28.5,2.8-35.3,6l17.2,31L98.3,392.9"
		/>
	<path id="path1079" class="st0" d="M117.3,380.6l13.7,7.3c0,0,21.9-20.1,33.3-50.8c0,0-18.6,35.4-33.3,45.9c0,0,6.5-8.7,5.7-20.5
		l7.5-10.7l-4.7,10.7l0.2,7.7c0,0,8.3-8.7,14.2-23c0,0-8.7-1.5-12-0.3L117.3,380.6"/>
	<path id="path1081" class="st2" d="M147.4,368l13,4.5c0,0,8.6-9.2,15.1-24.7c0,0-10.2,18.2-15.7,22.5c0,0-4.3-2-7-4.8
		c0,0,3.2,1.4,7.2,0.9c0,0,5.8-5.9,8.8-14.2c0,0-8.1-1-11.9-0.9L147.4,368"/>
	<path id="path1083" class="st3" d="M53.1,351.1c0,0-17.5-3.1-12.3-6.5c5.1-3.4,5.8-7.9-35-14.4c0,0,85.4,8.2,170.5-7.2
		c0,0-31.2,10.6-63.1,13.4C77.2,339.5,27.7,342.2,53.1,351.1"/>
	<path id="path1085" class="st4" d="M115,326c0,0-72.5,7.3-108.9-0.8C6.1,325.2,67.8,329.2,115,326"/>
	<path id="path1087" class="st0" d="M53.7,346.3c0,0,9.5-2.9,25.5-3.8c16-0.8,64.7-2,104.3-17.7c0,0-18.5,10.3-57.5,16.2
		c-39,5.8-55.7,2.7-68.2,7.7L53.7,346.3"/>
</g>
</svg>
